# xmcd CD database file
#
# Track frame offsets:
#	150
#	24147
#	53555
#	76361
#	98238
#	124413
#	141951
#	174363
#	189693
#	209807
#
# Disc length: 3143 seconds
#
# Revision: 0
# Processed by: cddbd v1.5.1PL0 Copyright (c) Steve Scherf et al.
# Submitted via: CDex 1.51
#
DISCID=890c450a
DTITLE=Ytre Suløens Jass-Ensemble - Something Old, Something New, Something Borrowed, Something Blue
DYEAR=2005
DGENRE=Jazz
TTITLE0=For Once In My Life
TTITLE1=All The World Is Green
TTITLE2=En Natt Forbi
TTITLE3=Find Myself
TTITLE4=Monk's Mood
TTITLE5=In Walked Bud
TTITLE6=Blues For A Sad Clown
TTITLE7=I Know, Don't Know How
TTITLE8=East St.Louis Toodle-oo
TTITLE9=Blues My Naughty Sweetie Gives To Me
EXTD=YEAR: 2005
EXTT0=
EXTT1=
EXTT2=
EXTT3=
EXTT4=
EXTT5=
EXTT6=
EXTT7=
EXTT8=
EXTT9=
PLAYORDER=
